<svg xmlns="http://www.w3.org/2000/svg" xml:space="preserve" width="125.25307" height="123.96385" viewBox="0 0 125.25307 123.96385"><g style="stroke-width:.369135"><g style="stroke-width:.369135"><path d="m0 0-1.188 1.627-.06-2.019c-.007-.248-.135-3.138-1.679-6.256.116 3.097-.406 6.638-2.694 9.298l-1.206 1.404-.006-1.856c-.008-1.69-.303-5.982-1.473-8.227a8.57 8.57 0 0 1-3.653 3.05v9.555c.879.283 2.139 1.045 3.074 1.638l-1.081.829c-1.628-1.029-3.163-1.468-4.527-1.572V9.91h-.001c-.011.1-.08.589-.558 1.172l.002.001s-.137.23-.2.499c.042.03.072.077.072.133a.165.165 0 1 1-.103-.153V9.91h-.238v1.542c-.662-.796-.7-1.506-.701-1.542V7.509c-2.327.285-3.85 1.416-3.958 1.499l-1.185-.757c.02-.016 1.209-.996 2.609-1.513v-9.717a8.57 8.57 0 0 1-3.653-3.05c-1.172 2.246-1.466 6.538-1.472 8.227l-.008 1.856-1.206-1.404c-2.287-2.661-2.809-6.202-2.694-9.298C-29.331-3.53-29.458-.64-29.466-.39l-.065 2.01L-30.713 0c-3.002-4.112-2.839-12.341 2.19-17.581 5.061-5.269 11.888-4.864 12.177-4.844l-.094 1.387c-.078-.004-6.491-.363-11.089 4.425-4.041 4.208-4.417 10.259-3.015 13.988.827-4.046 3.892-12.374 15.127-13.368l.061-.007.06.007C-4.062-14.999-.997-6.671-.168-2.625c1.4-3.729 1.023-9.78-3.017-13.988-4.617-4.81-11.024-4.429-11.087-4.425l-.095-1.387c.288-.02 7.117-.425 12.177 4.844C2.839-12.341 3.001-4.111 0 0m-17.372 6.33c.363-.081.747-.15 1.152-.195l.511-.055h.322c.203-.007.229-.014.44-.008l.454.023q.56.033 1.151.136V4.086h-4.03zm0-3.635h4.031V.759h-4.031zm0-3.327h4.03V-2.51a8.47 8.47 0 0 1-4.03 0zm-6.479-10.875a13.3 13.3 0 0 0-2.278 2.248c-.416 2.719-.536 6.388.967 9.326.175-2.226.661-5.636 1.994-7.482a8.56 8.56 0 0 1-.683-4.092m8.495-3.095c-2.063 0-3.741 1.688-3.741 3.764 0 2.073 1.678 3.762 3.741 3.762 2.062 0 3.74-1.689 3.74-3.762 0-2.076-1.678-3.764-3.74-3.764m6.933 2.057a15 15 0 0 0-2.536-1.146l-.291-.121c.601.837.955 1.864.955 2.974 0 2.807-2.27 5.091-5.061 5.091s-5.063-2.284-5.063-5.091c0-1.132.369-2.178.991-3.024a4 4 0 0 0-.322.171c-.931.319-1.769.707-2.53 1.141a7 7 0 0 0-.218 1.71c0 3.961 3.205 7.184 7.142 7.184s7.14-3.223 7.14-7.184a7.2 7.2 0 0 0-.207-1.705m3.842 3.289a13.4 13.4 0 0 0-2.282-2.251c.017.22.03.441.03.667a8.6 8.6 0 0 1-.712 3.424C-6.212-5.569-5.726-2.157-5.552.068c1.508-2.939 1.388-6.604.971-9.324" style="fill:#1c288b;fill-opacity:1;fill-rule:nonzero;stroke:none;stroke-width:.369135" transform="matrix(3.61205 0 0 -3.61205 118.096 42.911)"/></g><g style="stroke-width:.369135"><path d="M0 0c-.003.002 1.196-.335 1.196-.335l.121.436-1.2.335C.084.445-.645.682-1.154.384c-.227-.134-.459-.343-.539-.61a156 156 0 0 0-.695-2.23l.598-.226c.014.042.214.73.433 1.431l2.092-.642.132.433-2.087.641c.046.139.091.276.134.4C-.885.171-.04.012 0 0" style="fill:#1c288b;fill-opacity:1;fill-rule:nonzero;stroke:none;stroke-width:.369135" transform="matrix(3.61205 0 0 -3.61205 45.54 102.674)"/></g><g style="stroke-width:.369135"><path d="M0 0h-1.204c-.526 0-.495.889-.495.889v2.262h-.651V.911c-.011-.126-.036-.698.279-1.065.185-.218.53-.296.867-.296H0Z" style="fill:#1c288b;fill-opacity:1;fill-rule:nonzero;stroke:none;stroke-width:.369135" transform="matrix(3.61205 0 0 -3.61205 66.975 114.314)"/></g><g style="stroke-width:.369135"><path d="m0 0-.539-.198L.646-3.561l.539.201-.542 1.538 1.57.551.538-1.526.539.2L2.105.764 1.567.565l.496-1.41-1.571-.551Z" style="fill:#1c288b;fill-opacity:1;fill-rule:nonzero;stroke:none;stroke-width:.369135" transform="matrix(3.61205 0 0 -3.61205 77.967 101.694)"/></g><g style="stroke-width:.369135"><path d="m0 0-.279.378a82 82 0 0 0-1.134-.996s-.384-.338-.509-.688c-.125-.347-.231-.918.163-1.275.395-.359.886-.264 1.019-.223.192.058.557.417.557.417l.481.454c.048.057.461.289.76-.02.297-.309.172-.57.095-.677-.077-.105-1.316-1.286-1.316-1.286l.365-.396 1.125 1.161s.39.364.498.628c.146.347.203.812-.104 1.14-.308.33-.885.377-1.163.251-.28-.125-.663-.521-.663-.521s-.327-.3-.405-.349c-.076-.048-.528-.269-.759.04s-.173.637.029.842C-1.038-.918 0 0 0 0" style="fill:#1c288b;fill-opacity:1;fill-rule:nonzero;stroke:none;stroke-width:.369135" transform="matrix(3.61205 0 0 -3.61205 101.085 89.415)"/></g><g style="stroke-width:.369135"><path d="m0 0 .003-.003v.002c1.29-.819 2.126.224 2.126.224l.367.518c.859 1.216-.516 2.098-.516 2.098l-.596.43L-.599.458l.588-.45zm1.75 2.474c.242-.231.599-.732.125-1.403L1.593.672S1.042-.02.242.336z" style="fill:#1c288b;fill-opacity:1;fill-rule:nonzero;stroke:none;stroke-width:.369135" transform="matrix(3.61205 0 0 -3.61205 21.101 101.75)"/></g><g style="stroke-width:.369135"><path d="M0 0c.252 0 .457.195.457.436A.447.447 0 0 1 0 .874.447.447 0 0 1-.457.436C-.457.195-.252 0 0 0" style="fill:#1c288b;fill-opacity:1;fill-rule:nonzero;stroke:none;stroke-width:.369135" transform="matrix(3.61205 0 0 -3.61205 31.278 108.424)"/></g><g style="stroke-width:.369135"><path d="M0 0c0-.241.204-.436.456-.436.253 0 .458.195.458.436a.45.45 0 0 1-.458.437A.447.447 0 0 1 0 0" style="fill:#1c288b;fill-opacity:1;fill-rule:nonzero;stroke:none;stroke-width:.369135" transform="matrix(3.61205 0 0 -3.61205 93.192 106.847)"/></g><g style="stroke-width:.369135"><path d="M0 0a.447.447 0 0 1-.457.436A.447.447 0 0 1-.914 0c0-.24.205-.437.457-.437S0-.24 0 0" style="fill:#1c288b;fill-opacity:1;fill-rule:nonzero;stroke:none;stroke-width:.369135" transform="matrix(3.61205 0 0 -3.61205 74.898 114.72)"/></g><g style="stroke-width:.369135"><path d="M0 0c.252 0 .457.197.457.437A.447.447 0 0 1 0 .874.447.447 0 0 1-.457.437C-.457.197-.252 0 0 0" style="fill:#1c288b;fill-opacity:1;fill-rule:nonzero;stroke:none;stroke-width:.369135" transform="matrix(3.61205 0 0 -3.61205 51.656 116.3)"/></g></g></svg>